<?xml version="1.0" encoding="utf-8"?>
<!-- Generator: Adobe Illustrator 16.0.0, SVG Export Plug-In . SVG Version: 6.00 Build 0)  -->
<!DOCTYPE svg PUBLIC "-//W3C//DTD SVG 1.1//EN" "http://www.w3.org/Graphics/SVG/1.1/DTD/svg11.dtd">
<svg version="1.1" id="Layer_1" xmlns="http://www.w3.org/2000/svg" xmlns:xlink="http://www.w3.org/1999/xlink" x="0px" y="0px"
	 width="143.333px" height="149.334px" viewBox="0 0 143.333 149.334" enable-background="new 0 0 143.333 149.334"
	 xml:space="preserve">
<g>
	<g>
		<g>
			<circle fill="#799866" cx="71.667" cy="73.94" r="66.854"/>
			<circle fill="#467D3B" cx="71.667" cy="75.394" r="66.854"/>
		</g>
		<circle fill="#62BC46" cx="71.667" cy="75.394" r="61.767"/>
		<g>
			<path fill="#467D3B" d="M71.667,10.575c-0.963,0-1.744,0.391-1.744,0.872v8.72c0,0.481,0.781,0.872,1.744,0.872
				s1.744-0.391,1.744-0.872v-8.72C73.411,10.966,72.629,10.575,71.667,10.575z"/>
			<path fill="#467D3B" d="M71.667,129.748c-0.963,0-1.744,0.391-1.744,0.872v8.72c0,0.481,0.781,0.872,1.744,0.872
				s1.744-0.391,1.744-0.872v-8.72C73.411,130.139,72.629,129.748,71.667,129.748z"/>
			<path fill="#467D3B" d="M136.485,75.394c0-0.963-0.39-1.744-0.872-1.744h-8.72c-0.481,0-0.872,0.781-0.872,1.744
				s0.391,1.744,0.872,1.744h8.72C136.095,77.138,136.485,76.356,136.485,75.394z"/>
			<path fill="#467D3B" d="M17.312,75.394c0-0.963-0.391-1.744-0.872-1.744H7.72c-0.482,0-0.872,0.781-0.872,1.744
				s0.39,1.744,0.872,1.744h8.72C16.921,77.138,17.312,76.356,17.312,75.394z"/>
			<path fill="#467D3B" d="M39.257,19.259c-0.834,0.481-1.314,1.21-1.075,1.627l4.36,7.552c0.241,0.417,1.113,0.365,1.946-0.116
				c0.834-0.481,1.315-1.21,1.075-1.628l-4.36-7.551C40.962,18.726,40.091,18.777,39.257,19.259z"/>
			<path fill="#467D3B" d="M98.844,122.466c-0.834,0.481-1.315,1.21-1.075,1.628l4.36,7.551c0.241,0.417,1.112,0.365,1.946-0.116
				s1.314-1.21,1.075-1.627l-4.36-7.552C100.549,121.933,99.677,121.984,98.844,122.466z"/>
			<path fill="#467D3B" d="M127.801,42.984c-0.481-0.834-1.21-1.315-1.628-1.074l-7.552,4.36c-0.417,0.24-0.364,1.111,0.118,1.945
				c0.48,0.835,1.209,1.315,1.626,1.074l7.552-4.359C128.335,44.689,128.283,43.818,127.801,42.984z"/>
			<path fill="#467D3B" d="M24.593,102.571c-0.48-0.835-1.209-1.315-1.626-1.074l-7.552,4.359c-0.418,0.241-0.365,1.112,0.116,1.946
				s1.21,1.315,1.628,1.074l7.552-4.36C25.128,104.276,25.076,103.405,24.593,102.571z"/>
			<path fill="#467D3B" d="M15.532,42.984c-0.48,0.834-0.533,1.705-0.117,1.946l7.552,4.359c0.417,0.241,1.146-0.239,1.627-1.074
				c0.482-0.833,0.534-1.705,0.118-1.946l-7.552-4.36C16.742,41.67,16.013,42.15,15.532,42.984z"/>
			<path fill="#467D3B" d="M118.74,102.571c-0.482,0.833-0.534,1.705-0.118,1.946l7.552,4.36c0.418,0.239,1.146-0.241,1.628-1.075
				c0.48-0.834,0.533-1.705,0.117-1.946l-7.552-4.359C119.95,101.256,119.22,101.736,118.74,102.571z"/>
			<path fill="#467D3B" d="M104.076,19.259c-0.834-0.481-1.705-0.534-1.946-0.116l-4.36,7.552c-0.241,0.417,0.24,1.146,1.075,1.626
				c0.833,0.482,1.704,0.535,1.945,0.117l4.36-7.552C105.391,20.469,104.911,19.74,104.076,19.259z"/>
			<path fill="#467D3B" d="M44.489,122.467c-0.833-0.482-1.704-0.535-1.945-0.117l-4.36,7.552c-0.241,0.417,0.239,1.146,1.074,1.627
				c0.834,0.481,1.705,0.534,1.946,0.116l4.36-7.552C45.805,123.676,45.324,122.947,44.489,122.467z"/>
		</g>
	</g>
	<g>
		<defs>
			<circle id="SVGID_1_" cx="71.667" cy="75.394" r="66.854"/>
		</defs>
		<clipPath id="SVGID_2_">
			<use xlink:href="#SVGID_1_"  overflow="visible"/>
		</clipPath>
		<g clip-path="url(#SVGID_2_)">
			<polygon fill="#467D3B" points="113.025,82.958 99.138,86.361 106.83,94.054 100.625,101.869 129.308,130.553 144.79,114.724 			
				"/>
			<polygon fill="#467D3B" points="99.019,45.472 93.174,47.133 80.299,66.494 154.985,141.18 173.884,120.337 			"/>
			<path fill="#467D3B" d="M76.625,47.978c0,0-6.711-2.737-12.69-0.487c-4.01,1.616-6.013,5.483-6.013,5.483l7.272,7.272
				c-2.716,0.445-4.76,1.353-5.224,2.677c-0.984,2.814-2.161,8.513-2.161,8.513l80.403,80.4l21.722-20.549L76.625,47.978z"/>
		</g>
		<polygon clip-path="url(#SVGID_2_)" fill="#467D3B" points="175.321,167.076 47.75,39.506 44.489,48.071 38.035,41.617 
			29.577,76.211 46.813,113.289 138.233,204.709 165.125,177.815 164.854,177.544 		"/>
		<path id="phone" clip-path="url(#SVGID_2_)" fill="#FFFFFF" d="M48.381,57.415c2.082-1.183,3.338-2.998,2.904-4.834
			c-0.871-3.684-2.501-10.923-2.725-11.787c-0.335-1.294-2.354-3.193-4.655-2.205c-0.957,0.411-2.059,0.927-3.245,1.547
			l4.591,18.381C46.356,58.123,47.461,57.938,48.381,57.415z M77.981,98.818c-1.373-1.294-3.574-1.113-5.639,0.099
			c-0.912,0.535-1.626,1.399-2.52,2.159l13.623,13.166c1.131-0.718,2.128-1.413,2.963-2.037c2.006-1.498,1.371-4.196,0.417-5.134
			C86.19,106.445,80.735,101.415,77.981,98.818z M56.623,99.505L39.653,70.11c-0.659-1.141-0.971-5.512,3.016-9.939l-4.634-18.554
			c-4.068,2.465-8.681,6.098-12.283,11.265c-8.293,11.893-0.034,25.689-0.034,25.689l16.97,29.396c0,0,7.82,14.051,22.266,12.814
			c6.277-0.536,11.729-2.715,15.897-5.005l-13.75-13.29C61.271,103.725,57.628,101.246,56.623,99.505z"/>
		<g clip-path="url(#SVGID_2_)">
			<polygon fill="#FEE028" points="115.76,67.295 76.817,87.117 78.833,89.606 117.776,69.784 			"/>
			<g>
				<path fill="#FEE028" d="M57.921,52.974c0.038-5.498,5.237-7.876,10.03-7.876c5.199,0,10.847,2.119,10.847,8.286
					c0,6.61-4.977,7.872-10.438,7.872c-2.155,0-5.646,0.558-5.646,3.382v2.229h16.159v4.569H57.809c0-2.266,0-4.532,0-6.836
					c0-5.98,5.424-7.764,10.551-7.764c1.97,0,5.571-0.334,5.571-3.344c0-2.821-2.563-4.158-5.904-4.158
					c-2.564,0-5.202,1.299-5.239,3.64H57.921z"/>
				<path fill="#FEE028" d="M99.019,45.472V61.74h3.046v4.754h-3.046v4.941H94.19v-4.941H80.299l-0.446-4.978l11.699-16.045H99.019z
					 M94.19,61.74V49.705L85.387,61.74H94.19z"/>
			</g>
			<path fill="#FEE028" d="M100.625,101.869l7.726-15.508h-9.213v-3.403h13.887l0.189,1.891l-8.484,17.021H100.625z"/>
		</g>
	</g>
</g>
</svg>
