<?xml version="1.0" encoding="utf-8"?>
<!-- Generator: Adobe Illustrator 16.0.0, SVG Export Plug-In . SVG Version: 6.00 Build 0)  -->
<!DOCTYPE svg PUBLIC "-//W3C//DTD SVG 1.1//EN" "http://www.w3.org/Graphics/SVG/1.1/DTD/svg11.dtd">
<svg version="1.1" id="Layer_1" xmlns="http://www.w3.org/2000/svg" xmlns:xlink="http://www.w3.org/1999/xlink" x="0px" y="0px"
	 width="143.333px" height="149.334px" viewBox="0 0 143.333 149.334" enable-background="new 0 0 143.333 149.334"
	 xml:space="preserve">
<g>
	<g>
		<g>
			<circle fill="#799866" cx="71.667" cy="73.94" r="66.854"/>
			<circle fill="#6D6E71" cx="71.667" cy="75.394" r="66.854"/>
		</g>
		<circle fill="#BCBEC0" cx="71.667" cy="75.394" r="61.767"/>
	</g>
	<g>
		<defs>
			<circle id="SVGID_1_" cx="71.667" cy="75.394" r="66.854"/>
		</defs>
		<clipPath id="SVGID_2_">
			<use xlink:href="#SVGID_1_"  overflow="visible"/>
		</clipPath>
		<g clip-path="url(#SVGID_2_)">
			<path fill="#6D6E71" d="M88.69,63.488c0,0-6.711-2.737-12.69-0.487c-4.01,1.616-6.013,5.483-6.013,5.483l7.272,7.272
				c-2.716,0.445-4.76,1.353-5.224,2.677c-0.984,2.814-2.161,8.512-2.161,8.512l80.403,80.4L172,146.797L88.69,63.488z"/>
		</g>
		<polygon clip-path="url(#SVGID_2_)" fill="#6D6E71" points="183.636,152.281 73.456,53.003 50.917,65.25 54,92.667 
			41.276,109.433 137.073,200.086 163.965,173.192 163.694,172.921 		"/>
	</g>
</g>
<g>
	<g>
		<path fill="#DF1F26" d="M94.032,100.944V74.659c0-12.288-9.963-22.249-22.25-22.249l0,0c-12.288,0-22.249,9.961-22.249,22.249
			v26.285H94.032z"/>
		<path opacity="0.16" fill="#1A1A1A" d="M76.975,95.863v-6.137c0-2.867-2.326-5.193-5.194-5.193l0,0
			c-2.868,0-5.194,2.326-5.194,5.193v6.137H76.975z"/>
		<path fill="#A71E22" d="M99.537,103.684v-5.632c0-1.284-1.042-2.326-2.327-2.326H47.041c-1.285,0-2.327,1.042-2.327,2.326v5.632
			H99.537z"/>
		<g>
			<path fill="#1A1A1A" d="M102.974,109.433v-6.337c0-1.445-1.172-2.617-2.618-2.617H43.894c-1.446,0-2.618,1.172-2.618,2.617v6.337
				H102.974z"/>
			<g>
				<g>
					<path fill="#24252B" d="M53.373,103.261h-3.819c-0.513,0-0.927-0.415-0.927-0.927c0-0.513,0.415-0.928,0.927-0.928h3.819
						c0.512,0,0.928,0.415,0.928,0.928C54.301,102.846,53.885,103.261,53.373,103.261z"/>
				</g>
			</g>
			<g>
				<g>
					<path fill="#24252B" d="M72.528,103.261H59.482c-0.513,0-0.928-0.415-0.928-0.927c0-0.513,0.415-0.928,0.928-0.928h13.045
						c0.512,0,0.928,0.415,0.928,0.928C73.456,102.846,73.04,103.261,72.528,103.261z"/>
				</g>
			</g>
			<g>
				<path fill="#DF1F26" d="M60.106,98.356H47.059c-0.512,0-0.927-0.416-0.927-0.928s0.415-0.928,0.927-0.928h13.047
					c0.512,0,0.926,0.416,0.926,0.928S60.618,98.356,60.106,98.356z"/>
			</g>
			<g>
				<path fill="#EF443C" d="M51.311,92.95V74.199c0-0.716,0.54-1.344,1.254-1.387c0.776-0.046,1.419,0.569,1.419,1.334v18.752
					c0,0.716-0.54,1.343-1.254,1.386C51.954,94.331,51.311,93.716,51.311,92.95z"/>
			</g>
			<path fill="#EF443C" d="M60.222,58.544c-0.535-0.475-1.361-0.413-1.866,0.094l-0.759,0.758l-0.853,0.853l-0.795,0.795
				c-0.542,0.542-0.521,1.431,0.06,1.947c0.536,0.475,1.361,0.412,1.867-0.094l0.758-0.758l0.854-0.853l0.794-0.795
				C60.823,59.949,60.803,59.06,60.222,58.544z"/>
			<g>
				<g>
					<path fill="#24252B" d="M43.131,105.793c-0.512,0-0.927-0.415-0.927-0.927v-0.972c0-1.372,1.116-2.488,2.488-2.488h0.447
						c0.513,0,0.928,0.415,0.928,0.928c0,0.512-0.415,0.927-0.928,0.927h-0.447c-0.35,0-0.633,0.284-0.633,0.634v0.972
						C44.058,105.378,43.643,105.793,43.131,105.793z"/>
				</g>
			</g>
		</g>
		<path opacity="0.29" fill="#1A1A1A" d="M100.356,100.479h-0.819v-2.427c0-1.284-1.042-2.326-2.327-2.326h-3.178V74.659
			c0-12.288-9.963-22.249-22.25-22.249l0,0c-1.855,0-3.657,0.229-5.38,0.657c9.688,2.406,16.869,11.16,16.869,21.592v21.066h3.18
			c1.284,0,2.325,1.042,2.325,2.326v2.427h0.821c1.445,0,2.617,1.172,2.617,2.617v6.337h10.761v-6.337
			C102.974,101.65,101.802,100.479,100.356,100.479z"/>
	</g>
	<g>
		<g>
			<g>
				<g>
					<g>
						<path fill="#EF443C" d="M95.462,56.418L95.462,56.418c-0.646-0.645-0.646-1.692,0-2.337l4.493-4.493
							c0.646-0.646,1.691-0.646,2.338,0l0,0c0.446,0.447,0.584,1.087,0.41,1.652c-0.075,0.25-0.213,0.486-0.41,0.685l-4.494,4.493
							C97.155,57.063,96.108,57.063,95.462,56.418z"/>
					</g>
				</g>
				<g>
					<g>
						<path fill="#EF443C" d="M48.102,56.418L48.102,56.418c0.646-0.645,0.646-1.692,0-2.337l-4.493-4.493
							c-0.645-0.646-1.691-0.646-2.337,0l0,0c-0.447,0.447-0.584,1.087-0.412,1.652c0.077,0.25,0.214,0.486,0.412,0.685l4.493,4.493
							C46.41,57.063,47.457,57.063,48.102,56.418z"/>
					</g>
				</g>
			</g>
			<g>
				<g>
					<g>
						<path fill="#EF443C" d="M53.292,52.177L53.292,52.177c-0.761,0.503-1.786,0.295-2.29-0.466L43.094,39.77
							c-0.504-0.761-0.296-1.786,0.465-2.29l0,0c0.378-0.25,0.822-0.325,1.234-0.243c0.417,0.083,0.803,0.326,1.057,0.708
							l7.908,11.941C54.262,50.647,54.053,51.672,53.292,52.177z"/>
					</g>
				</g>
				<g>
					<g>
						<path fill="#EF443C" d="M99.705,61.608L99.705,61.608c-0.505-0.761-0.296-1.787,0.465-2.291l11.941-7.908
							c0.761-0.503,1.787-0.295,2.29,0.466l0,0c0.251,0.378,0.325,0.822,0.243,1.234c-0.082,0.417-0.325,0.803-0.708,1.057
							l-11.941,7.908C101.234,62.577,100.208,62.369,99.705,61.608z"/>
					</g>
				</g>
			</g>
			<g>
				<g>
					<g>
						<path fill="#EF443C" d="M43.925,61.511L43.925,61.511c-0.506,0.759-1.532,0.964-2.292,0.458l-11.914-7.95
							c-0.759-0.506-0.964-1.533-0.458-2.292l0,0c0.252-0.377,0.632-0.618,1.043-0.702c0.417-0.085,0.867-0.01,1.249,0.244
							l11.914,7.95C44.227,59.725,44.432,60.751,43.925,61.511z"/>
					</g>
				</g>
				<g>
					<g>
						<path fill="#EF443C" d="M90.37,52.242L90.37,52.242c-0.759-0.507-0.963-1.533-0.457-2.292l7.95-11.914
							c0.505-0.759,1.532-0.964,2.292-0.458l0,0c0.377,0.252,0.617,0.632,0.701,1.044c0.086,0.417,0.011,0.866-0.244,1.248
							l-7.949,11.914C92.155,52.543,91.129,52.748,90.37,52.242z"/>
					</g>
				</g>
			</g>
		</g>
		<g>
			<g>
				<g>
					<g>
						<path fill="#EF443C" d="M71.783,46.609L71.783,46.609c-0.913,0-1.653-0.74-1.653-1.653V30.634c0-0.913,0.74-1.652,1.653-1.652
							l0,0c0.453,0,0.864,0.183,1.163,0.479c0.302,0.299,0.489,0.715,0.489,1.174v14.322C73.435,45.87,72.695,46.609,71.783,46.609z
							"/>
					</g>
				</g>
				<g>
					<g>
						<path fill="#EF443C" d="M105.271,80.099L105.271,80.099c0-0.913,0.74-1.652,1.653-1.652h14.322
							c0.912,0,1.652,0.739,1.652,1.652l0,0c0,0.453-0.183,0.864-0.479,1.163c-0.3,0.302-0.715,0.489-1.174,0.489h-14.322
							C106.011,81.751,105.271,81.012,105.271,80.099z"/>
					</g>
					<g>
						<path fill="#EF443C" d="M38.293,80.099L38.293,80.099c0-0.913-0.741-1.652-1.653-1.652H22.318
							c-0.913,0-1.652,0.739-1.652,1.652l0,0c0,0.453,0.183,0.864,0.479,1.163c0.299,0.302,0.714,0.489,1.173,0.489h14.323
							C37.553,81.751,38.293,81.012,38.293,80.099z"/>
					</g>
				</g>
			</g>
			<g>
				<g>
					<g>
						<path fill="#EF443C" d="M78.451,47.28L78.451,47.28c-0.894-0.182-1.472-1.054-1.29-1.949l1.265-6.227
							c0.182-0.894,1.054-1.472,1.949-1.29l0,0c0.62,0.125,1.088,0.583,1.255,1.15c0.075,0.251,0.091,0.523,0.034,0.798L80.4,45.99
							C80.218,46.884,79.346,47.462,78.451,47.28z"/>
					</g>
				</g>
				<g>
					<g>
						<path fill="#EF443C" d="M104.6,86.768L104.6,86.768c0.183-0.895,1.056-1.472,1.949-1.29l6.227,1.265
							c0.895,0.183,1.472,1.055,1.29,1.949l0,0c-0.126,0.62-0.583,1.088-1.15,1.256c-0.251,0.074-0.523,0.09-0.798,0.034
							l-6.227-1.266C104.997,88.534,104.419,87.662,104.6,86.768z"/>
					</g>
					<g>
						<path fill="#EF443C" d="M38.964,73.43L38.964,73.43c0.182-0.895-0.396-1.767-1.291-1.949l-6.226-1.265
							c-0.895-0.183-1.767,0.396-1.949,1.29l0,0c-0.126,0.62,0.113,1.229,0.569,1.605c0.202,0.166,0.447,0.287,0.722,0.343
							l6.227,1.266C37.91,74.901,38.782,74.323,38.964,73.43z"/>
					</g>
				</g>
			</g>
			<g>
				<g>
					<g>
						<path fill="#EF443C" d="M65.228,47.257L65.228,47.257c-0.895,0.179-1.765-0.402-1.944-1.297l-1.244-6.231
							c-0.179-0.895,0.402-1.765,1.297-1.944l0,0c0.62-0.124,1.229,0.117,1.604,0.575c0.165,0.202,0.286,0.448,0.34,0.723
							l1.244,6.23C66.704,46.208,66.123,47.078,65.228,47.257z"/>
					</g>
				</g>
				<g>
					<g>
						<path fill="#EF443C" d="M104.624,73.544L104.624,73.544c-0.178-0.895,0.402-1.766,1.298-1.943l6.23-1.244
							c0.895-0.179,1.766,0.402,1.944,1.298l0,0c0.124,0.619-0.117,1.229-0.575,1.603c-0.202,0.166-0.448,0.286-0.723,0.342
							l-6.23,1.242C105.673,75.021,104.802,74.439,104.624,73.544z"/>
					</g>
					<g>
						<path fill="#EF443C" d="M38.941,86.652L38.941,86.652c-0.179-0.895-1.049-1.476-1.944-1.297l-6.23,1.244
							c-0.896,0.178-1.476,1.049-1.297,1.943l0,0c0.123,0.62,0.58,1.09,1.146,1.261c0.251,0.074,0.523,0.092,0.798,0.037l6.23-1.243
							C38.539,88.418,39.12,87.548,38.941,86.652z"/>
					</g>
				</g>
			</g>
		</g>
	</g>
</g>
</svg>
