<?xml version="1.0" encoding="utf-8"?>
<!-- Generator: Adobe Illustrator 16.0.0, SVG Export Plug-In . SVG Version: 6.00 Build 0)  -->
<!DOCTYPE svg PUBLIC "-//W3C//DTD SVG 1.1//EN" "http://www.w3.org/Graphics/SVG/1.1/DTD/svg11.dtd">
<svg version="1.1" id="Layer_1" xmlns="http://www.w3.org/2000/svg" xmlns:xlink="http://www.w3.org/1999/xlink" x="0px" y="0px"
	 width="143.333px" height="149.334px" viewBox="0 0 143.333 149.334" enable-background="new 0 0 143.333 149.334"
	 xml:space="preserve">
<g>
	<g>
		<g>
			<circle fill="#799866" cx="71.667" cy="73.94" r="66.854"/>
			<circle fill="#FBB040" cx="71.667" cy="75.394" r="66.854"/>
		</g>
		<circle fill="#F9ED32" cx="71.667" cy="75.394" r="61.767"/>
	</g>
	<g>
		<defs>
			<circle id="SVGID_1_" cx="71.667" cy="75.394" r="66.854"/>
		</defs>
		<clipPath id="SVGID_2_">
			<use xlink:href="#SVGID_1_"  overflow="visible"/>
		</clipPath>
		<g clip-path="url(#SVGID_2_)">
			<polygon fill="#FBB040" points="113.025,82.958 99.138,86.361 106.83,94.054 100.625,101.869 129.308,130.553 144.79,114.724 			
				"/>
			<polygon fill="#FBB040" points="104.708,45.909 94.917,48.25 79.028,31.737 74.747,43.964 51.588,40.568 168.132,149.334 
				187.032,128.49 			"/>
			<path fill="#FBB040" d="M88.69,63.488c0,0-6.711-2.737-12.69-0.487c-4.01,1.616-6.013,5.483-6.013,5.483l7.272,7.272
				c-2.716,0.445-4.76,1.353-5.224,2.677c-0.984,2.814-2.161,8.512-2.161,8.512l80.403,80.4L172,146.797L88.69,63.488z"/>
		</g>
		<polygon clip-path="url(#SVGID_2_)" fill="#FBB040" points="183.636,152.281 83.354,52 43.519,47.582 54.917,58.5 50.917,65.25 
			36.654,65.553 36.943,76.175 47.567,87.155 30.922,109.175 137.073,200.086 163.965,173.192 163.694,172.921 		"/>
	</g>
</g>
<g>
	<path fill="#2C3D4F" d="M32.276,102.569c-2.393,2.433-2.375,6.338,0.041,8.727c1.217,1.199,2.795,1.797,4.375,1.791
		c1.574-0.007,3.157-0.621,4.355-1.833l30.315-30.592l0.036-0.038c4.542,1.454,9.718,0.373,13.302-3.243
		c3.415-3.451,4.513-8.313,3.309-12.677l-7.364,7.434l-7.266-1.909L71.4,62.986l7.37-7.434c-4.377-1.167-9.228-0.02-12.649,3.415
		c-3.438,3.475-4.526,8.398-3.277,12.787L32.276,102.569z M33.778,107.897c-0.005-1.305,1.037-2.357,2.347-2.363
		c1.296-0.005,2.354,1.036,2.359,2.341c0.008,1.297-1.041,2.365-2.338,2.371C34.841,110.253,33.785,109.197,33.778,107.897z"/>
	<path fill="#FFFFFF" d="M36.943,76.175l-0.289-10.622l10.455-0.287c0.622-3.824,1.969-7.368,3.979-10.5l-7.57-7.186l7.325-7.719
		l7.562,7.166c3.02-2.182,6.506-3.728,10.275-4.56l-0.285-10.441l10.633-0.291l0.286,10.445c3.798,0.631,7.357,1.982,10.499,3.992
		l7.18-7.567l7.715,7.302l-7.146,7.587c2.151,3.008,3.71,6.488,4.55,10.278l10.439-0.286l0.289,10.632l-10.437,0.286
		c-0.634,3.798-2,7.352-3.982,10.505l7.55,7.164l-7.306,7.719l-7.576-7.166c-3.021,2.168-6.507,3.729-10.27,4.565l0.286,10.436
		l-10.629,0.291l-0.287-10.445c-3.025-0.506-5.887-1.474-8.513-2.852l5.184-5.02c2.612,1.044,5.477,1.586,8.469,1.505
		C87.083,90.787,96.349,81,96.028,69.247c-0.322-11.753-10.109-21.021-21.862-20.698C62.412,48.87,53.145,58.658,53.467,70.412
		c0.054,1.988,0.386,3.902,0.944,5.713l-5.065,5.547c-0.842-1.828-1.498-3.762-1.945-5.782L36.943,76.175z"/>
</g>
</svg>
