<?xml version="1.0" encoding="utf-8"?>
<!-- Generator: Adobe Illustrator 16.0.0, SVG Export Plug-In . SVG Version: 6.00 Build 0)  -->
<!DOCTYPE svg PUBLIC "-//W3C//DTD SVG 1.1//EN" "http://www.w3.org/Graphics/SVG/1.1/DTD/svg11.dtd">
<svg version="1.1" id="Layer_1" xmlns="http://www.w3.org/2000/svg" xmlns:xlink="http://www.w3.org/1999/xlink" x="0px" y="0px"
	 width="143.333px" height="149.334px" viewBox="0 0 143.333 149.334" enable-background="new 0 0 143.333 149.334"
	 xml:space="preserve">
<g>
	<g>
		<g>
			<circle fill="#799866" cx="71.667" cy="73.94" r="66.854"/>
			<circle fill="#2E3192" cx="71.667" cy="75.394" r="66.854"/>
		</g>
		<circle fill="#00AEEF" cx="71.667" cy="75.394" r="61.767"/>
	</g>
	<g>
		<defs>
			<circle id="SVGID_1_" cx="71.667" cy="75.394" r="66.854"/>
		</defs>
		<clipPath id="SVGID_2_">
			<use xlink:href="#SVGID_1_"  overflow="visible"/>
		</clipPath>
		<g clip-path="url(#SVGID_2_)">
			<polygon fill="#2E3192" points="113.025,82.958 99.138,86.361 106.83,94.054 100.625,101.869 129.308,130.553 144.79,114.724 			
				"/>
			<polygon fill="#2E3192" points="103.185,35.652 89.333,41.5 83.947,57.667 158.632,132.354 177.532,111.51 			"/>
			<path fill="#2E3192" d="M88.69,63.488c0,0-6.711-2.737-12.69-0.487c-4.01,1.616-6.013,5.483-6.013,5.483l7.272,7.272
				c-2.716,0.445-4.76,1.353-5.224,2.677c-0.984,2.814-2.161,8.512-2.161,8.512l80.403,80.4L172,146.797L88.69,63.488z"/>
		</g>
		<polygon clip-path="url(#SVGID_2_)" fill="#2E3192" points="184.796,156.904 84.514,56.623 59.333,80.773 32.723,99.277 
			46.813,113.289 46.813,113.289 138.233,204.709 165.125,177.815 164.854,177.544 		"/>
	</g>
</g>
<g>
	<g>
		<g>
			<path fill="#7D7D7D" d="M52.43,100.723l-4.064-7.008c-0.842-1.451-2.703-1.948-4.156-1.105l-11.486,6.668
				c-0.005-4.896,2.511-9.66,7.053-12.291c3.518-2.043,7.545-2.385,11.156-1.312c0.729-0.312,1.412-0.759,2-1.372l17.212-17.909
				l0.005,0.005l12.145-12.641c0.64-0.668,1.089-1.436,1.368-2.249c-1.917-6.174,0.59-13.068,6.421-16.45
				c4.538-2.633,9.926-2.458,14.174-0.027l-11.488,6.669c-1.451,0.843-1.947,2.7-1.104,4.155l4.064,7.007
				c0.845,1.454,2.705,1.948,4.159,1.105l11.484-6.668c0.006,4.896-2.512,9.659-7.056,12.29c-3.514,2.042-7.54,2.39-11.155,1.316
				c-0.729,0.31-1.412,0.761-1.997,1.369L73.952,80.184l-0.005-0.006L61.799,92.821c-0.636,0.663-1.087,1.433-1.363,2.25
				c1.911,6.173-0.596,13.066-6.427,16.447c-4.538,2.631-9.922,2.455-14.169,0.024l11.484-6.668
				C52.784,104.029,53.274,102.176,52.43,100.723z"/>
			<g>
				<path fill="#666664" d="M34.612,37.045l4.969-4.969l8.354,3.394l3.391,8.357l33.015,33.014c1.496,1.496,1.6,3.825,0.229,5.193
					c-1.37,1.37-3.698,1.271-5.194-0.231L46.356,48.79l-8.354-3.388L34.612,37.045z"/>
				<g>
					<path fill="#F2B92B" d="M104.13,114.01c2.251,2.252,5.739,2.405,7.794,0.346l4.969-4.965c2.057-2.058,1.904-5.545-0.346-7.795
						l-25.77-25.769c-2.25-2.249-5.741-2.403-7.797-0.347l-4.965,4.967c-2.059,2.057-1.902,5.548,0.344,7.794L104.13,114.01z"/>
					<g>
						<path fill="#D09D2A" d="M110.247,102.741c1.797,1.8,3.588,2.926,4,2.512l0.996-0.991c0.41-0.411-0.717-2.203-2.514-4.001
							L92.114,79.644c-1.799-1.794-3.591-2.921-4.005-2.511l-0.991,0.995c-0.412,0.409,0.714,2.204,2.513,3.999L110.247,102.741z"/>
						<path fill="#D09D2A" d="M102.796,110.193c1.798,1.798,3.589,2.921,3.999,2.512l0.994-0.994
							c0.412-0.411-0.713-2.202-2.51-4.001L84.66,87.095c-1.794-1.796-3.587-2.921-3.997-2.512l-0.994,0.995
							c-0.41,0.412,0.715,2.203,2.508,3.998L102.796,110.193z"/>
						<path fill="#D09D2A" d="M106.522,106.47c1.799,1.795,3.588,2.921,4,2.512l0.992-0.995c0.41-0.41-0.713-2.199-2.508-4.002
							L88.383,83.373c-1.794-1.8-3.584-2.926-3.994-2.516l-0.999,0.996c-0.409,0.41,0.717,2.203,2.511,4.001L106.522,106.47z"/>
					</g>
				</g>
			</g>
		</g>
	</g>
</g>
</svg>
